<svg width="104" height="43" viewBox="0 0 104 43" fill="none" xmlns="http://www.w3.org/2000/svg">
<path d="M5.533 42.831H0L16.604 4H22.137L5.533 42.831Z" fill="url(#paint0_linear)"/>
<path d="M32 11.9287C32 10.4516 32.3074 9.16337 32.9222 8.06411C33.537 6.94767 34.3889 6.08888 35.4779 5.48772C36.567 4.86938 37.8141 4.56021 39.2193 4.56021C41.0286 4.56021 42.5216 5.00679 43.6985 5.89994C44.893 6.77591 45.6922 8.01258 46.0962 9.60995H42.1176C41.9068 8.99161 41.5468 8.51068 41.0374 8.16717C40.5455 7.80647 39.9307 7.62612 39.193 7.62612C38.1391 7.62612 37.3047 8.00399 36.6899 8.75974C36.0752 9.4983 35.7678 10.5546 35.7678 11.9287C35.7678 13.2856 36.0752 14.3419 36.6899 15.0977C37.3047 15.8362 38.1391 16.2055 39.193 16.2055C40.6861 16.2055 41.6609 15.5528 42.1176 14.2475H46.0962C45.6922 15.7933 44.893 17.0214 43.6985 17.9317C42.5041 18.842 41.011 19.2972 39.2193 19.2972C37.8141 19.2972 36.567 18.9966 35.4779 18.3954C34.3889 17.7771 33.537 16.9183 32.9222 15.8191C32.3074 14.7026 32 13.4058 32 11.9287Z" fill="#323232"/>
<path d="M54.4897 19.2972C53.0844 19.2972 51.8197 18.9966 50.6955 18.3954C49.5714 17.7771 48.6843 16.9097 48.0344 15.7933C47.402 14.6769 47.0859 13.3887 47.0859 11.9287C47.0859 10.4687 47.4108 9.18055 48.0607 8.06411C48.7282 6.94767 49.6328 6.08888 50.7746 5.48772C51.9163 4.86938 53.1898 4.56021 54.595 4.56021C56.0003 4.56021 57.2738 4.86938 58.4155 5.48772C59.5573 6.08888 60.4531 6.94767 61.103 8.06411C61.7705 9.18055 62.1042 10.4687 62.1042 11.9287C62.1042 13.3887 61.7617 14.6769 61.0767 15.7933C60.4092 16.9097 59.4958 17.7771 58.3365 18.3954C57.1947 18.9966 55.9124 19.2972 54.4897 19.2972ZM54.4897 16.154C55.1571 16.154 55.7807 15.9994 56.3604 15.6902C56.9576 15.3639 57.4318 14.883 57.7832 14.2475C58.1345 13.6119 58.3101 12.839 58.3101 11.9287C58.3101 10.5718 57.9412 9.53265 57.2035 8.81126C56.4833 8.0727 55.5963 7.70341 54.5423 7.70341C53.4884 7.70341 52.6014 8.0727 51.8812 8.81126C51.1786 9.53265 50.8273 10.5718 50.8273 11.9287C50.8273 13.2856 51.1698 14.3333 51.8549 15.0719C52.5575 15.7933 53.4357 16.154 54.4897 16.154Z" fill="#323232"/>
<path d="M63.0711 11.8772C63.0711 10.4344 63.3609 9.15478 63.9406 8.03835C64.5378 6.92191 65.3458 6.06311 66.3646 5.46195C67.3834 4.8608 68.5163 4.56021 69.7635 4.56021C70.712 4.56021 71.6166 4.76633 72.4773 5.17855C73.338 5.5736 74.0231 6.10605 74.5324 6.77591V0H78.2739V19.0653H74.5324V16.9527C74.0757 17.6569 73.4346 18.2237 72.609 18.6531C71.7835 19.0825 70.8262 19.2972 69.7371 19.2972C68.5075 19.2972 67.3834 18.988 66.3646 18.3697C65.3458 17.7514 64.5378 16.884 63.9406 15.7675C63.3609 14.6339 63.0711 13.3371 63.0711 11.8772ZM74.5588 11.9287C74.5588 11.0527 74.3831 10.3056 74.0318 9.68724C73.6805 9.05173 73.2063 8.5708 72.609 8.24446C72.0118 7.90094 71.3707 7.72918 70.6856 7.72918C70.0006 7.72918 69.3682 7.89235 68.7886 8.21869C68.2089 8.54504 67.7347 9.02596 67.3658 9.66147C67.0145 10.2798 66.8388 11.0184 66.8388 11.8772C66.8388 12.736 67.0145 13.4917 67.3658 14.1444C67.7347 14.7799 68.2089 15.2694 68.7886 15.6129C69.3858 15.9565 70.0182 16.1282 70.6856 16.1282C71.3707 16.1282 72.0118 15.965 72.609 15.6387C73.2063 15.2952 73.6805 14.8143 74.0318 14.1959C74.3831 13.5604 74.5588 12.8047 74.5588 11.9287Z" fill="#323232"/>
<path d="M94.6553 11.6195C94.6553 12.1348 94.6202 12.5986 94.5499 13.0108H83.879C83.9668 14.0413 84.3357 14.8486 84.9856 15.4326C85.6355 16.0166 86.4347 16.3086 87.3833 16.3086C88.7534 16.3086 89.7282 15.7332 90.3079 14.5824H94.2864C93.8649 15.9565 93.0569 17.0901 91.8624 17.9832C90.668 18.8592 89.2013 19.2972 87.4623 19.2972C86.0571 19.2972 84.7924 18.9966 83.6682 18.3954C82.5616 17.7771 81.6921 16.9097 81.0597 15.7933C80.445 14.6769 80.1376 13.3887 80.1376 11.9287C80.1376 10.4516 80.445 9.15478 81.0597 8.03835C81.6745 6.92191 82.5352 6.06311 83.6419 5.46195C84.7485 4.8608 86.022 4.56021 87.4623 4.56021C88.85 4.56021 90.0883 4.85221 91.1774 5.43619C92.284 6.02017 93.1359 6.85321 93.7331 7.93529C94.3479 9.0002 94.6553 10.2283 94.6553 11.6195ZM90.8349 10.589C90.8173 9.66147 90.4748 8.92291 89.8073 8.37328C89.1398 7.80647 88.323 7.52307 87.3569 7.52307C86.4435 7.52307 85.6706 7.79788 85.0383 8.34751C84.4235 8.87997 84.0459 9.62712 83.9053 10.589H90.8349Z" fill="#323232"/>
<path d="M32 35.6315C32 34.1544 32.3074 32.8662 32.9222 31.7669C33.537 30.6505 34.3889 29.7917 35.4779 29.1905C36.567 28.5722 37.8141 28.263 39.2193 28.263C41.0286 28.263 42.5216 28.7096 43.6985 29.6028C44.893 30.4787 45.6922 31.7154 46.0962 33.3128H42.1176C41.9068 32.6944 41.5468 32.2135 41.0374 31.87C40.5455 31.5093 39.9307 31.3289 39.193 31.3289C38.1391 31.3289 37.3047 31.7068 36.6899 32.4626C36.0752 33.2011 35.7678 34.2574 35.7678 35.6315C35.7678 36.9884 36.0752 38.0447 36.6899 38.8005C37.3047 39.539 38.1391 39.9083 39.193 39.9083C40.6861 39.9083 41.6609 39.2556 42.1176 37.9503H46.0962C45.6922 39.4961 44.893 40.7242 43.6985 41.6345C42.5041 42.5448 41.011 43 39.2193 43C37.8141 43 36.567 42.6994 35.4779 42.0983C34.3889 41.4799 33.537 40.6211 32.9222 39.5219C32.3074 38.4054 32 37.1087 32 35.6315Z" fill="#323232"/>
<path d="M53.0142 23.7028V42.7681H49.3254V23.7028H53.0142Z" fill="#323232"/>
<path d="M59.0563 26.7945C58.4064 26.7945 57.8619 26.597 57.4227 26.2019C57.0012 25.7897 56.7904 25.283 56.7904 24.6818C56.7904 24.0807 57.0012 23.5826 57.4227 23.1875C57.8619 22.7753 58.4064 22.5692 59.0563 22.5692C59.7062 22.5692 60.242 22.7753 60.6635 23.1875C61.1027 23.5826 61.3222 24.0807 61.3222 24.6818C61.3222 25.283 61.1027 25.7897 60.6635 26.2019C60.242 26.597 59.7062 26.7945 59.0563 26.7945ZM60.8743 28.4949V42.7681H57.1856V28.4949H60.8743Z" fill="#323232"/>
<path d="M73.1346 28.2888C74.8735 28.2888 76.2788 28.8298 77.3502 29.9119C78.4217 30.9768 78.9575 32.4711 78.9575 34.3948V42.7681H75.2687V34.8844C75.2687 33.7507 74.9789 32.8834 74.3993 32.2822C73.8196 31.6639 73.0292 31.3547 72.028 31.3547C71.0092 31.3547 70.2012 31.6639 69.6039 32.2822C69.0243 32.8834 68.7344 33.7507 68.7344 34.8844V42.7681H65.0457V28.4949H68.7344V30.2726C69.2263 29.6543 69.8498 29.1734 70.6052 28.8298C71.378 28.4691 72.2212 28.2888 73.1346 28.2888Z" fill="#323232"/>
<path d="M84.8629 26.7945C84.213 26.7945 83.6685 26.597 83.2293 26.2019C82.8078 25.7897 82.597 25.283 82.597 24.6818C82.597 24.0807 82.8078 23.5826 83.2293 23.1875C83.6685 22.7753 84.213 22.5692 84.8629 22.5692C85.5128 22.5692 86.0486 22.7753 86.4701 23.1875C86.9093 23.5826 87.1288 24.0807 87.1288 24.6818C87.1288 25.283 86.9093 25.7897 86.4701 26.2019C86.0486 26.597 85.5128 26.7945 84.8629 26.7945ZM86.6809 28.4949V42.7681H82.9922V28.4949H86.6809Z" fill="#323232"/>
<path d="M89.9038 35.6315C89.9038 34.1544 90.2112 32.8662 90.826 31.7669C91.4408 30.6505 92.2927 29.7917 93.3818 29.1905C94.4708 28.5722 95.7179 28.263 97.1232 28.263C98.9324 28.263 100.425 28.7096 101.602 29.6028C102.797 30.4787 103.596 31.7154 104 33.3128H100.021C99.8107 32.6944 99.4506 32.2135 98.9412 31.87C98.4494 31.5093 97.8346 31.3289 97.0968 31.3289C96.0429 31.3289 95.2086 31.7068 94.5938 32.4626C93.979 33.2011 93.6716 34.2574 93.6716 35.6315C93.6716 36.9884 93.979 38.0447 94.5938 38.8005C95.2086 39.539 96.0429 39.9083 97.0968 39.9083C98.5899 39.9083 99.5648 39.2556 100.021 37.9503H104C103.596 39.4961 102.797 40.7242 101.602 41.6345C100.408 42.5448 98.9148 43 97.1232 43C95.7179 43 94.4708 42.6994 93.3818 42.0983C92.2927 41.4799 91.4408 40.6211 90.826 39.5219C90.2112 38.4054 89.9038 37.1087 89.9038 35.6315Z" fill="#323232"/>
<defs>
<linearGradient id="paint0_linear" x1="13.8057" y1="2.63936" x2="-2.02253" y2="41.6829" gradientUnits="userSpaceOnUse">
<stop stop-color="#FEBE10"/>
<stop offset="0.0482" stop-color="#F9A41B"/>
<stop offset="0.1715" stop-color="#F16522"/>
<stop offset="0.2275" stop-color="#EE4523"/>
<stop offset="0.2689" stop-color="#D9403D"/>
<stop offset="0.3407" stop-color="#BA385E"/>
<stop offset="0.4053" stop-color="#A23173"/>
<stop offset="0.4601" stop-color="#902C81"/>
<stop offset="0.503" stop-color="#852A8A"/>
<stop offset="0.5288" stop-color="#81298E"/>
<stop offset="0.7947" stop-color="#2584C6"/>
<stop offset="1" stop-color="#02AE4D"/>
</linearGradient>
</defs>
</svg>
