<svg width="156" height="65" viewBox="0 0 156 65" fill="none" xmlns="http://www.w3.org/2000/svg">
<g clip-path="url(#clip0)">
<path d="M8.2995 64.7445H0L24.906 6.04651H33.2055L8.2995 64.7445Z" fill="white"/>
<path d="M48 18.0317C48 15.7989 48.4611 13.8516 49.3833 12.1899C50.3055 10.5023 51.5834 9.20409 53.2169 8.29536C54.8505 7.36066 56.7212 6.89331 58.829 6.89331C61.5429 6.89331 63.7824 7.56837 65.5478 8.91848C67.3395 10.2426 68.5383 12.112 69.1443 14.5266H63.1764C62.8602 13.5919 62.3202 12.865 61.5561 12.3457C60.8183 11.8004 59.8961 11.5278 58.7895 11.5278C57.2087 11.5278 55.9571 12.099 55.0349 13.2414C54.1128 14.3579 53.6517 15.9546 53.6517 18.0317C53.6517 20.0829 54.1128 21.6796 55.0349 22.8221C55.9571 23.9384 57.2087 24.4967 58.7895 24.4967C61.0292 24.4967 62.4914 23.51 63.1764 21.5369H69.1443C68.5383 23.8736 67.3395 25.73 65.5478 27.106C63.7562 28.4821 61.5165 29.1702 58.829 29.1702C56.7212 29.1702 54.8505 28.7158 53.2169 27.807C51.5834 26.8723 50.3055 25.5741 49.3833 23.9126C48.4611 22.2248 48 20.2646 48 18.0317Z" fill="white"/>
<path d="M81.7346 29.1702C79.6267 29.1702 77.7296 28.7158 76.0433 27.807C74.3572 26.8723 73.0265 25.5611 72.0517 23.8736C71.1031 22.186 70.6289 20.2387 70.6289 18.0317C70.6289 15.8247 71.1163 13.8775 72.0911 12.1899C73.0924 10.5023 74.4493 9.20409 76.162 8.29536C77.8745 7.36066 79.7848 6.89331 81.8926 6.89331C84.0005 6.89331 85.9107 7.36066 87.6233 8.29536C89.336 9.20409 90.6797 10.5023 91.6545 12.1899C92.6558 13.8775 93.1563 15.8247 93.1563 18.0317C93.1563 20.2387 92.6426 22.186 91.6151 23.8736C90.6138 25.5611 89.2437 26.8723 87.5048 27.807C85.7921 28.7158 83.8687 29.1702 81.7346 29.1702ZM81.7346 24.4188C82.7357 24.4188 83.6711 24.1851 84.5407 23.7177C85.4365 23.2245 86.1477 22.4975 86.6748 21.5369C87.2018 20.5761 87.4652 19.4078 87.4652 18.0317C87.4652 15.9806 86.9118 14.4098 85.8053 13.3193C84.725 12.2029 83.3945 11.6447 81.8135 11.6447C80.2327 11.6447 78.9022 12.2029 77.8219 13.3193C76.768 14.4098 76.241 15.9806 76.241 18.0317C76.241 20.0829 76.7548 21.6666 77.7824 22.7831C78.8363 23.8736 80.1536 24.4188 81.7346 24.4188Z" fill="white"/>
<path d="M94.6064 17.9539C94.6064 15.7729 95.0411 13.8386 95.9107 12.151C96.8065 10.4634 98.0185 9.16517 99.5467 8.25644C101.075 7.34772 102.774 6.89334 104.645 6.89334C106.068 6.89334 107.425 7.20492 108.716 7.82804C110.007 8.42521 111.034 9.23008 111.798 10.2427V0H117.411V28.8196H111.798V25.6262C111.113 26.6907 110.152 27.5475 108.913 28.1965C107.675 28.8456 106.239 29.1702 104.605 29.1702C102.761 29.1702 101.075 28.7028 99.5467 27.7682C98.0185 26.8335 96.8065 25.5223 95.9107 23.8346C95.0411 22.121 94.6064 20.1607 94.6064 17.9539ZM111.838 18.0318C111.838 16.7076 111.574 15.5782 111.047 14.6435C110.521 13.6828 109.809 12.9559 108.913 12.4626C108.017 11.9433 107.056 11.6836 106.028 11.6836C105.001 11.6836 104.052 11.9303 103.183 12.4236C102.313 12.9169 101.602 13.6439 101.048 14.6045C100.522 15.5392 100.258 16.6557 100.258 17.9539C100.258 19.2521 100.522 20.3944 101.048 21.3811C101.602 22.3417 102.313 23.0817 103.183 23.6009C104.078 24.1203 105.027 24.3798 106.028 24.3798C107.056 24.3798 108.017 24.1331 108.913 23.6399C109.809 23.1207 110.521 22.3937 111.047 21.4589C111.574 20.4983 111.838 19.3559 111.838 18.0318Z" fill="white"/>
<path d="M141.983 17.5643C141.983 18.3433 141.93 19.0444 141.825 19.6675H125.819C125.95 21.2252 126.504 22.4455 127.479 23.3283C128.453 24.2111 129.652 24.6525 131.075 24.6525C133.13 24.6525 134.592 23.7827 135.462 22.0431H141.43C140.798 24.1203 139.585 25.8338 137.794 27.1839C136.002 28.5081 133.802 29.1702 131.194 29.1702C129.086 29.1702 127.189 28.7158 125.502 27.807C123.843 26.8723 122.538 25.5611 121.59 23.8736C120.668 22.186 120.207 20.2387 120.207 18.0317C120.207 15.7989 120.668 13.8386 121.59 12.151C122.512 10.4633 123.803 9.16514 125.463 8.25641C127.123 7.34769 129.033 6.89331 131.194 6.89331C133.275 6.89331 135.133 7.33471 136.766 8.21747C138.426 9.10023 139.704 10.3595 140.6 11.9952C141.522 13.6049 141.983 15.4614 141.983 17.5643ZM136.253 16.0066C136.226 14.6045 135.712 13.4881 134.711 12.6573C133.71 11.8004 132.485 11.3721 131.036 11.3721C129.665 11.3721 128.506 11.7875 127.558 12.6183C126.635 13.4232 126.069 14.5526 125.858 16.0066H136.253Z" fill="white"/>
<path d="M48 53.8616C48 51.6288 48.4611 49.6815 49.3833 48.0197C50.3055 46.3322 51.5834 45.034 53.2169 44.1252C54.8505 43.1905 56.7212 42.7231 58.829 42.7231C61.5429 42.7231 63.7824 43.3982 65.5478 44.7484C67.3395 46.0725 68.5383 47.9419 69.1443 50.3566H63.1764C62.8602 49.4218 62.3202 48.6948 61.5561 48.1756C60.8183 47.6303 59.8961 47.3576 58.7895 47.3576C57.2087 47.3576 55.9571 47.9289 55.0349 49.0714C54.1128 50.1877 53.6517 51.7845 53.6517 53.8616C53.6517 55.9127 54.1128 57.5094 55.0349 58.6519C55.9571 59.7683 57.2087 60.3265 58.7895 60.3265C61.0292 60.3265 62.4914 59.3399 63.1764 57.3667H69.1443C68.5383 59.7034 67.3395 61.5598 65.5478 62.9359C63.7562 64.3119 61.5165 65 58.829 65C56.7212 65 54.8505 64.5456 53.2169 63.637C51.5834 62.7022 50.3055 61.404 49.3833 59.7424C48.4611 58.0547 48 56.0946 48 53.8616Z" fill="white"/>
<path d="M79.5215 35.8298V64.6495H73.9883V35.8298H79.5215Z" fill="white"/>
<path d="M88.5844 40.5033C87.6095 40.5033 86.7928 40.2047 86.134 39.6075C85.5017 38.9844 85.1855 38.2185 85.1855 37.3097C85.1855 36.401 85.5017 35.6481 86.134 35.0508C86.7928 34.4278 87.6095 34.1162 88.5844 34.1162C89.5592 34.1162 90.3629 34.4278 90.9952 35.0508C91.654 35.6481 91.9832 36.401 91.9832 37.3097C91.9832 38.2185 91.654 38.9844 90.9952 39.6075C90.3629 40.2047 89.5592 40.5033 88.5844 40.5033ZM91.3114 43.0737V64.6494H85.7783V43.0737H91.3114Z" fill="white"/>
<path d="M109.702 42.7622C112.31 42.7622 114.418 43.58 116.025 45.2157C117.632 46.8255 118.436 49.0843 118.436 51.9922V64.6495H112.903V52.7323C112.903 51.0186 112.468 49.7075 111.599 48.7987C110.729 47.8641 109.544 47.3967 108.042 47.3967C106.514 47.3967 105.302 47.8641 104.406 48.7987C103.536 49.7075 103.101 51.0186 103.101 52.7323V64.6495H97.5684V43.0738H103.101V45.761C103.839 44.8263 104.775 44.0994 105.908 43.58C107.067 43.0348 108.332 42.7622 109.702 42.7622Z" fill="white"/>
<path d="M127.294 40.5033C126.32 40.5033 125.503 40.2047 124.844 39.6075C124.212 38.9844 123.896 38.2185 123.896 37.3097C123.896 36.401 124.212 35.6481 124.844 35.0508C125.503 34.4278 126.32 34.1162 127.294 34.1162C128.269 34.1162 129.073 34.4278 129.705 35.0508C130.364 35.6481 130.693 36.401 130.693 37.3097C130.693 38.2185 130.364 38.9844 129.705 39.6075C129.073 40.2047 128.269 40.5033 127.294 40.5033ZM130.021 43.0737V64.6494H124.488V43.0737H130.021Z" fill="white"/>
<path d="M134.856 53.8616C134.856 51.6288 135.317 49.6815 136.239 48.0197C137.161 46.3322 138.439 45.034 140.073 44.1252C141.706 43.1905 143.577 42.7231 145.685 42.7231C148.399 42.7231 150.638 43.3982 152.403 44.7484C154.196 46.0725 155.394 47.9419 156 50.3566H150.032C149.716 49.4218 149.176 48.6948 148.412 48.1756C147.674 47.6303 146.752 47.3576 145.645 47.3576C144.065 47.3576 142.813 47.9289 141.891 49.0714C140.969 50.1877 140.508 51.7845 140.508 53.8616C140.508 55.9127 140.969 57.5094 141.891 58.6519C142.813 59.7683 144.065 60.3265 145.645 60.3265C147.885 60.3265 149.347 59.3399 150.032 57.3667H156C155.394 59.7034 154.196 61.5598 152.403 62.9359C150.612 64.3119 148.372 65 145.685 65C143.577 65 141.706 64.5456 140.073 63.637C138.439 62.7022 137.161 61.404 136.239 59.7424C135.317 58.0547 134.856 56.0946 134.856 53.8616Z" fill="white"/>
</g>
<defs>
<clipPath id="clip0">
<rect width="156" height="65" fill="white"/>
</clipPath>
</defs>
</svg>
